<svg width="64" height="64" viewBox="0 0 64 64" fill="none" xmlns="http://www.w3.org/2000/svg">
<g filter="url(#filter0_d_4_40374)">
<g filter="url(#filter1_ii_4_40374)">
<path d="M17.2588 49.9402L20.8735 44.0253C20.9913 43.8325 21.2884 43.9524 21.2393 44.1729L19.7356 50.9398C19.5979 51.5593 19.0485 52 18.414 52C17.3567 52 16.7075 50.8423 17.2588 49.9402Z" fill="#3B82F6"/>
</g>
<path d="M19.3204 51.0909C19.1045 51.5992 18.5174 51.8363 18.0091 51.6203C17.5007 51.4044 17.2637 50.8173 17.4796 50.309C17.6956 49.8006 19.9917 45.2841 20.5 45.5C21.0083 45.7159 19.5364 50.5826 19.3204 51.0909Z" fill="url(#paint0_radial_4_40374)"/>
<g filter="url(#filter2_ii_4_40374)">
<path d="M23.7588 49.9402L27.3735 44.0253C27.4913 43.8325 27.7884 43.9524 27.7393 44.1729L26.2356 50.9398C26.0979 51.5593 25.5485 52 24.914 52C23.8567 52 23.2075 50.8423 23.7588 49.9402Z" fill="#3B82F6"/>
</g>
<path d="M25.8204 51.0909C25.6045 51.5992 25.0174 51.8363 24.5091 51.6203C24.0007 51.4044 23.7637 50.8173 23.9796 50.309C24.1956 49.8006 26.4917 45.2841 27 45.5C27.5083 45.7159 26.0364 50.5826 25.8204 51.0909Z" fill="url(#paint1_radial_4_40374)"/>
<g filter="url(#filter3_ii_4_40374)">
<path d="M30.2588 49.9402L33.8735 44.0253C33.9913 43.8325 34.2884 43.9524 34.2393 44.1729L32.7356 50.9398C32.5979 51.5593 32.0485 52 31.414 52C30.3567 52 29.7075 50.8423 30.2588 49.9402Z" fill="#3B82F6"/>
</g>
<path d="M32.3204 51.0909C32.1045 51.5992 31.5174 51.8363 31.0091 51.6203C30.5007 51.4044 30.2637 50.8173 30.4796 50.309C30.6956 49.8006 32.9917 45.2841 33.5 45.5C34.0083 45.7159 32.5364 50.5826 32.3204 51.0909Z" fill="url(#paint2_radial_4_40374)"/>
<g filter="url(#filter4_ii_4_40374)">
<path d="M36.7588 49.9402L40.3735 44.0253C40.4913 43.8325 40.7884 43.9524 40.7393 44.1729L39.2356 50.9398C39.0979 51.5593 38.5485 52 37.914 52C36.8567 52 36.2075 50.8423 36.7588 49.9402Z" fill="#3B82F6"/>
</g>
<path d="M38.8204 51.0909C38.6045 51.5992 38.0174 51.8363 37.5091 51.6203C37.0007 51.4044 36.7637 50.8173 36.9796 50.309C37.1956 49.8006 39.4917 45.2841 40 45.5C40.5083 45.7159 39.0364 50.5826 38.8204 51.0909Z" fill="url(#paint3_radial_4_40374)"/>
<g filter="url(#filter5_ii_4_40374)">
<path d="M43.2588 49.9402L46.8735 44.0253C46.9913 43.8325 47.2884 43.9524 47.2393 44.1729L45.7356 50.9398C45.5979 51.5593 45.0485 52 44.414 52C43.3567 52 42.7075 50.8423 43.2588 49.9402Z" fill="#3B82F6"/>
</g>
<path d="M45.3204 51.0909C45.1045 51.5992 44.5174 51.8363 44.0091 51.6203C43.5007 51.4044 43.2637 50.8173 43.4796 50.309C43.6956 49.8006 45.9917 45.2841 46.5 45.5C47.0083 45.7159 45.5364 50.5826 45.3204 51.0909Z" fill="url(#paint4_radial_4_40374)"/>
<g filter="url(#filter6_ii_4_40374)">
<path d="M49.7588 49.9402L53.3735 44.0253C53.4913 43.8325 53.7884 43.9524 53.7393 44.1729L52.2356 50.9398C52.0979 51.5593 51.5485 52 50.914 52C49.8567 52 49.2075 50.8423 49.7588 49.9402Z" fill="#3B82F6"/>
</g>
<path d="M51.8204 51.0909C51.6045 51.5992 51.0174 51.8363 50.5091 51.6203C50.0007 51.4044 49.7637 50.8173 49.9796 50.309C50.1956 49.8006 52.4917 45.2841 53 45.5C53.5083 45.7159 52.0364 50.5826 51.8204 51.0909Z" fill="url(#paint5_radial_4_40374)"/>
<g filter="url(#filter7_f_4_40374)">
<path d="M17.0645 47.7391C16.1355 43.913 13.9677 42.3188 13 42H49C47.4516 43.7536 45.5161 46.2087 45.5161 47.7391C45.5161 49.2696 45.9032 51.8841 46.6774 53H15.9032C16.6774 52.8406 17.9935 51.5652 17.0645 47.7391Z" fill="url(#paint6_linear_4_40374)"/>
</g>
<g filter="url(#filter8_d_4_40374)">
<path fill-rule="evenodd" clip-rule="evenodd" d="M49 25.5121C49 25.5081 49 25.504 49 25.5C49 18.5964 43.4036 13 36.5 13C31.1094 13 26.5158 16.4122 24.7613 21.1945C24.1946 21.0672 23.6051 21 23 21C18.5817 21 15 24.5817 15 29C15 29.0236 15.0001 29.0473 15.0003 29.0708C11.6079 29.5559 9 32.4734 9 36C9 39.866 12.134 43 16 43H46C50.9706 43 55 38.9706 55 34C55 30.0813 52.4956 26.7476 49 25.5121Z" fill="#64748B"/>
</g>
<g filter="url(#filter9_ii_4_40374)">
<path fill-rule="evenodd" clip-rule="evenodd" d="M55 34C55 38.9706 50.9706 43 46 43H16C12.134 43 9 39.866 9 36C9 32.134 12.134 29 16 29C18.7924 29 21.2029 30.6351 22.3264 33H37.0549C37.5524 28.5 41.3674 25 46 25C50.9706 25 55 29.0294 55 34Z" fill="#F1F5F9"/>
</g>
<g filter="url(#filter10_f_4_40374)">
<circle cx="16" cy="36" r="5" fill="url(#paint7_linear_4_40374)" style="mix-blend-mode:soft-light"/>
</g>
<g filter="url(#filter11_i_4_40374)">
<circle cx="23" cy="29" r="8" fill="#F1F5F9"/>
</g>
<g filter="url(#filter12_f_4_40374)">
<ellipse cx="23" cy="28" rx="6" ry="5" fill="url(#paint8_linear_4_40374)" style="mix-blend-mode:soft-light"/>
</g>
<g filter="url(#filter13_f_4_40374)">
<circle cx="47" cy="33" r="5" fill="url(#paint9_linear_4_40374)" style="mix-blend-mode:soft-light"/>
</g>
<g filter="url(#filter14_i_4_40374)">
<circle cx="36.5" cy="25.5" r="12.5" fill="#F1F5F9"/>
</g>
<g filter="url(#filter15_f_4_40374)">
<ellipse cx="36" cy="20" rx="7" ry="5" fill="url(#paint10_linear_4_40374)" style="mix-blend-mode:soft-light"/>
</g>
<g filter="url(#filter16_i_4_40374)">
<ellipse cx="32" cy="33.5" rx="9" ry="6.5" fill="url(#paint11_linear_4_40374)"/>
</g>
<g filter="url(#filter17_f_4_40374)">
<ellipse cx="32" cy="33.5" rx="7" ry="4.5" fill="url(#paint12_linear_4_40374)" style="mix-blend-mode:soft-light"/>
</g>
<path fill-rule="evenodd" clip-rule="evenodd" d="M49 25.5121C49 25.5081 49 25.504 49 25.5C49 18.5964 43.4036 13 36.5 13C31.1094 13 26.5158 16.4122 24.7613 21.1945C24.1946 21.0672 23.6051 21 23 21C18.5817 21 15 24.5817 15 29C15 29.0236 15.0001 29.0473 15.0003 29.0708C11.6079 29.5559 9 32.4734 9 36C9 39.866 12.134 43 16 43H46C50.9706 43 55 38.9706 55 34C55 30.0813 52.4956 26.7476 49 25.5121Z" fill="#1E293B" style="mix-blend-mode:overlay"/>
<path fill-rule="evenodd" clip-rule="evenodd" d="M49 25.5121C49 25.5081 49 25.504 49 25.5C49 18.5964 43.4036 13 36.5 13C31.1094 13 26.5158 16.4122 24.7613 21.1945C24.1946 21.0672 23.6051 21 23 21C18.5817 21 15 24.5817 15 29C15 29.0236 15.0001 29.0473 15.0003 29.0708C11.6079 29.5559 9 32.4734 9 36C9 39.866 12.134 43 16 43H46C50.9706 43 55 38.9706 55 34C55 30.0813 52.4956 26.7476 49 25.5121Z" fill="#334155" fill-opacity="0.3" style="mix-blend-mode:multiply"/>
<g filter="url(#filter18_dii_4_40374)">
<path fill-rule="evenodd" clip-rule="evenodd" d="M30 42C30 42 31.6949 42.5 32.5 42.5C33.3051 42.5 35 42 35 42L33.6442 44.5273C33.2868 45.1935 33.7694 46.0001 34.5254 46.0001H34.8635C35.699 46.0001 36.1661 46.9639 35.6484 47.6197L29.4271 55.5L31.4883 49.3163C31.7042 48.6687 31.2222 48 30.5396 48L29.3874 48.0001C28.7049 48.0001 28.2229 47.3314 28.4387 46.6838L30 42Z" fill="#FCD34D"/>
</g>
<g filter="url(#filter19_f_4_40374)">
<path d="M32 40C24.9123 40 18 42.0335 18 43H46C46 42.0335 39.0877 40 32 40Z" fill="url(#paint13_radial_4_40374)"/>
</g>
</g>
<defs>
<filter id="filter0_d_4_40374" x="-4" y="0" width="72" height="72" filterUnits="userSpaceOnUse" color-interpolation-filters="sRGB">
<feFlood flood-opacity="0" result="BackgroundImageFix"/>
<feColorMatrix in="SourceAlpha" type="matrix" values="0 0 0 0 0 0 0 0 0 0 0 0 0 0 0 0 0 0 127 0" result="hardAlpha"/>
<feOffset dy="4"/>
<feGaussianBlur stdDeviation="2"/>
<feComposite in2="hardAlpha" operator="out"/>
<feColorMatrix type="matrix" values="0 0 0 0 0 0 0 0 0 0 0 0 0 0 0 0 0 0 0.25 0"/>
<feBlend mode="normal" in2="BackgroundImageFix" result="effect1_dropShadow_4_40374"/>
<feBlend mode="normal" in="SourceGraphic" in2="effect1_dropShadow_4_40374" result="shape"/>
</filter>
<filter id="filter1_ii_4_40374" x="17.058" y="43.4287" width="4.18677" height="8.57129" filterUnits="userSpaceOnUse" color-interpolation-filters="sRGB">
<feFlood flood-opacity="0" result="BackgroundImageFix"/>
<feBlend mode="normal" in="SourceGraphic" in2="BackgroundImageFix" result="shape"/>
<feColorMatrix in="SourceAlpha" type="matrix" values="0 0 0 0 0 0 0 0 0 0 0 0 0 0 0 0 0 0 127 0" result="hardAlpha"/>
<feOffset dy="-1"/>
<feComposite in2="hardAlpha" operator="arithmetic" k2="-1" k3="1"/>
<feColorMatrix type="matrix" values="0 0 0 0 0.231373 0 0 0 0 0.509804 0 0 0 0 0.964706 0 0 0 1 0"/>
<feBlend mode="normal" in2="shape" result="effect1_innerShadow_4_40374"/>
<feColorMatrix in="SourceAlpha" type="matrix" values="0 0 0 0 0 0 0 0 0 0 0 0 0 0 0 0 0 0 127 0" result="hardAlpha"/>
<feOffset dy="-0.5"/>
<feGaussianBlur stdDeviation="0.25"/>
<feComposite in2="hardAlpha" operator="arithmetic" k2="-1" k3="1"/>
<feColorMatrix type="matrix" values="0 0 0 0 0.113438 0 0 0 0 0.33625 0 0 0 0 0.825 0 0 0 1 0"/>
<feBlend mode="normal" in2="effect1_innerShadow_4_40374" result="effect2_innerShadow_4_40374"/>
</filter>
<filter id="filter2_ii_4_40374" x="23.558" y="43.4287" width="4.18677" height="8.57129" filterUnits="userSpaceOnUse" color-interpolation-filters="sRGB">
<feFlood flood-opacity="0" result="BackgroundImageFix"/>
<feBlend mode="normal" in="SourceGraphic" in2="BackgroundImageFix" result="shape"/>
<feColorMatrix in="SourceAlpha" type="matrix" values="0 0 0 0 0 0 0 0 0 0 0 0 0 0 0 0 0 0 127 0" result="hardAlpha"/>
<feOffset dy="-1"/>
<feComposite in2="hardAlpha" operator="arithmetic" k2="-1" k3="1"/>
<feColorMatrix type="matrix" values="0 0 0 0 0.231373 0 0 0 0 0.509804 0 0 0 0 0.964706 0 0 0 1 0"/>
<feBlend mode="normal" in2="shape" result="effect1_innerShadow_4_40374"/>
<feColorMatrix in="SourceAlpha" type="matrix" values="0 0 0 0 0 0 0 0 0 0 0 0 0 0 0 0 0 0 127 0" result="hardAlpha"/>
<feOffset dy="-0.5"/>
<feGaussianBlur stdDeviation="0.25"/>
<feComposite in2="hardAlpha" operator="arithmetic" k2="-1" k3="1"/>
<feColorMatrix type="matrix" values="0 0 0 0 0.113438 0 0 0 0 0.33625 0 0 0 0 0.825 0 0 0 1 0"/>
<feBlend mode="normal" in2="effect1_innerShadow_4_40374" result="effect2_innerShadow_4_40374"/>
</filter>
<filter id="filter3_ii_4_40374" x="30.058" y="43.4287" width="4.18677" height="8.57129" filterUnits="userSpaceOnUse" color-interpolation-filters="sRGB">
<feFlood flood-opacity="0" result="BackgroundImageFix"/>
<feBlend mode="normal" in="SourceGraphic" in2="BackgroundImageFix" result="shape"/>
<feColorMatrix in="SourceAlpha" type="matrix" values="0 0 0 0 0 0 0 0 0 0 0 0 0 0 0 0 0 0 127 0" result="hardAlpha"/>
<feOffset dy="-1"/>
<feComposite in2="hardAlpha" operator="arithmetic" k2="-1" k3="1"/>
<feColorMatrix type="matrix" values="0 0 0 0 0.231373 0 0 0 0 0.509804 0 0 0 0 0.964706 0 0 0 1 0"/>
<feBlend mode="normal" in2="shape" result="effect1_innerShadow_4_40374"/>
<feColorMatrix in="SourceAlpha" type="matrix" values="0 0 0 0 0 0 0 0 0 0 0 0 0 0 0 0 0 0 127 0" result="hardAlpha"/>
<feOffset dy="-0.5"/>
<feGaussianBlur stdDeviation="0.25"/>
<feComposite in2="hardAlpha" operator="arithmetic" k2="-1" k3="1"/>
<feColorMatrix type="matrix" values="0 0 0 0 0.113438 0 0 0 0 0.33625 0 0 0 0 0.825 0 0 0 1 0"/>
<feBlend mode="normal" in2="effect1_innerShadow_4_40374" result="effect2_innerShadow_4_40374"/>
</filter>
<filter id="filter4_ii_4_40374" x="36.558" y="43.4287" width="4.18677" height="8.57129" filterUnits="userSpaceOnUse" color-interpolation-filters="sRGB">
<feFlood flood-opacity="0" result="BackgroundImageFix"/>
<feBlend mode="normal" in="SourceGraphic" in2="BackgroundImageFix" result="shape"/>
<feColorMatrix in="SourceAlpha" type="matrix" values="0 0 0 0 0 0 0 0 0 0 0 0 0 0 0 0 0 0 127 0" result="hardAlpha"/>
<feOffset dy="-1"/>
<feComposite in2="hardAlpha" operator="arithmetic" k2="-1" k3="1"/>
<feColorMatrix type="matrix" values="0 0 0 0 0.231373 0 0 0 0 0.509804 0 0 0 0 0.964706 0 0 0 1 0"/>
<feBlend mode="normal" in2="shape" result="effect1_innerShadow_4_40374"/>
<feColorMatrix in="SourceAlpha" type="matrix" values="0 0 0 0 0 0 0 0 0 0 0 0 0 0 0 0 0 0 127 0" result="hardAlpha"/>
<feOffset dy="-0.5"/>
<feGaussianBlur stdDeviation="0.25"/>
<feComposite in2="hardAlpha" operator="arithmetic" k2="-1" k3="1"/>
<feColorMatrix type="matrix" values="0 0 0 0 0.113438 0 0 0 0 0.33625 0 0 0 0 0.825 0 0 0 1 0"/>
<feBlend mode="normal" in2="effect1_innerShadow_4_40374" result="effect2_innerShadow_4_40374"/>
</filter>
<filter id="filter5_ii_4_40374" x="43.058" y="43.4287" width="4.18677" height="8.57129" filterUnits="userSpaceOnUse" color-interpolation-filters="sRGB">
<feFlood flood-opacity="0" result="BackgroundImageFix"/>
<feBlend mode="normal" in="SourceGraphic" in2="BackgroundImageFix" result="shape"/>
<feColorMatrix in="SourceAlpha" type="matrix" values="0 0 0 0 0 0 0 0 0 0 0 0 0 0 0 0 0 0 127 0" result="hardAlpha"/>
<feOffset dy="-1"/>
<feComposite in2="hardAlpha" operator="arithmetic" k2="-1" k3="1"/>
<feColorMatrix type="matrix" values="0 0 0 0 0.231373 0 0 0 0 0.509804 0 0 0 0 0.964706 0 0 0 1 0"/>
<feBlend mode="normal" in2="shape" result="effect1_innerShadow_4_40374"/>
<feColorMatrix in="SourceAlpha" type="matrix" values="0 0 0 0 0 0 0 0 0 0 0 0 0 0 0 0 0 0 127 0" result="hardAlpha"/>
<feOffset dy="-0.5"/>
<feGaussianBlur stdDeviation="0.25"/>
<feComposite in2="hardAlpha" operator="arithmetic" k2="-1" k3="1"/>
<feColorMatrix type="matrix" values="0 0 0 0 0.113438 0 0 0 0 0.33625 0 0 0 0 0.825 0 0 0 1 0"/>
<feBlend mode="normal" in2="effect1_innerShadow_4_40374" result="effect2_innerShadow_4_40374"/>
</filter>
<filter id="filter6_ii_4_40374" x="49.558" y="43.4287" width="4.18677" height="8.57129" filterUnits="userSpaceOnUse" color-interpolation-filters="sRGB">
<feFlood flood-opacity="0" result="BackgroundImageFix"/>
<feBlend mode="normal" in="SourceGraphic" in2="BackgroundImageFix" result="shape"/>
<feColorMatrix in="SourceAlpha" type="matrix" values="0 0 0 0 0 0 0 0 0 0 0 0 0 0 0 0 0 0 127 0" result="hardAlpha"/>
<feOffset dy="-1"/>
<feComposite in2="hardAlpha" operator="arithmetic" k2="-1" k3="1"/>
<feColorMatrix type="matrix" values="0 0 0 0 0.231373 0 0 0 0 0.509804 0 0 0 0 0.964706 0 0 0 1 0"/>
<feBlend mode="normal" in2="shape" result="effect1_innerShadow_4_40374"/>
<feColorMatrix in="SourceAlpha" type="matrix" values="0 0 0 0 0 0 0 0 0 0 0 0 0 0 0 0 0 0 127 0" result="hardAlpha"/>
<feOffset dy="-0.5"/>
<feGaussianBlur stdDeviation="0.25"/>
<feComposite in2="hardAlpha" operator="arithmetic" k2="-1" k3="1"/>
<feColorMatrix type="matrix" values="0 0 0 0 0.113438 0 0 0 0 0.33625 0 0 0 0 0.825 0 0 0 1 0"/>
<feBlend mode="normal" in2="effect1_innerShadow_4_40374" result="effect2_innerShadow_4_40374"/>
</filter>
<filter id="filter7_f_4_40374" x="11" y="40" width="40" height="15" filterUnits="userSpaceOnUse" color-interpolation-filters="sRGB">
<feFlood flood-opacity="0" result="BackgroundImageFix"/>
<feBlend mode="normal" in="SourceGraphic" in2="BackgroundImageFix" result="shape"/>
<feGaussianBlur stdDeviation="1" result="effect1_foregroundBlur_4_40374"/>
</filter>
<filter id="filter8_d_4_40374" x="5" y="11" width="54" height="38" filterUnits="userSpaceOnUse" color-interpolation-filters="sRGB">
<feFlood flood-opacity="0" result="BackgroundImageFix"/>
<feColorMatrix in="SourceAlpha" type="matrix" values="0 0 0 0 0 0 0 0 0 0 0 0 0 0 0 0 0 0 127 0" result="hardAlpha"/>
<feOffset dy="2"/>
<feGaussianBlur stdDeviation="2"/>
<feComposite in2="hardAlpha" operator="out"/>
<feColorMatrix type="matrix" values="0 0 0 0 0.278431 0 0 0 0 0.333333 0 0 0 0 0.411765 0 0 0 0.4 0"/>
<feBlend mode="normal" in2="BackgroundImageFix" result="effect1_dropShadow_4_40374"/>
<feBlend mode="normal" in="SourceGraphic" in2="effect1_dropShadow_4_40374" result="shape"/>
</filter>
<filter id="filter9_ii_4_40374" x="9" y="23" width="46" height="22" filterUnits="userSpaceOnUse" color-interpolation-filters="sRGB">
<feFlood flood-opacity="0" result="BackgroundImageFix"/>
<feBlend mode="normal" in="SourceGraphic" in2="BackgroundImageFix" result="shape"/>
<feColorMatrix in="SourceAlpha" type="matrix" values="0 0 0 0 0 0 0 0 0 0 0 0 0 0 0 0 0 0 127 0" result="hardAlpha"/>
<feOffset dy="2"/>
<feGaussianBlur stdDeviation="1"/>
<feComposite in2="hardAlpha" operator="arithmetic" k2="-1" k3="1"/>
<feColorMatrix type="matrix" values="0 0 0 0 0.796078 0 0 0 0 0.835294 0 0 0 0 0.882353 0 0 0 1 0"/>
<feBlend mode="normal" in2="shape" result="effect1_innerShadow_4_40374"/>
<feColorMatrix in="SourceAlpha" type="matrix" values="0 0 0 0 0 0 0 0 0 0 0 0 0 0 0 0 0 0 127 0" result="hardAlpha"/>
<feOffset dy="-2"/>
<feGaussianBlur stdDeviation="1"/>
<feComposite in2="hardAlpha" operator="arithmetic" k2="-1" k3="1"/>
<feColorMatrix type="matrix" values="0 0 0 0 0.796078 0 0 0 0 0.835294 0 0 0 0 0.882353 0 0 0 0.6 0"/>
<feBlend mode="normal" in2="effect1_innerShadow_4_40374" result="effect2_innerShadow_4_40374"/>
</filter>
<filter id="filter10_f_4_40374" x="9" y="29" width="14" height="14" filterUnits="userSpaceOnUse" color-interpolation-filters="sRGB">
<feFlood flood-opacity="0" result="BackgroundImageFix"/>
<feBlend mode="normal" in="SourceGraphic" in2="BackgroundImageFix" result="shape"/>
<feGaussianBlur stdDeviation="1" result="effect1_foregroundBlur_4_40374"/>
</filter>
<filter id="filter11_i_4_40374" x="15" y="21" width="16" height="18" filterUnits="userSpaceOnUse" color-interpolation-filters="sRGB">
<feFlood flood-opacity="0" result="BackgroundImageFix"/>
<feBlend mode="normal" in="SourceGraphic" in2="BackgroundImageFix" result="shape"/>
<feColorMatrix in="SourceAlpha" type="matrix" values="0 0 0 0 0 0 0 0 0 0 0 0 0 0 0 0 0 0 127 0" result="hardAlpha"/>
<feOffset dy="2"/>
<feGaussianBlur stdDeviation="1"/>
<feComposite in2="hardAlpha" operator="arithmetic" k2="-1" k3="1"/>
<feColorMatrix type="matrix" values="0 0 0 0 0.796078 0 0 0 0 0.835294 0 0 0 0 0.882353 0 0 0 1 0"/>
<feBlend mode="normal" in2="shape" result="effect1_innerShadow_4_40374"/>
</filter>
<filter id="filter12_f_4_40374" x="15" y="21" width="16" height="14" filterUnits="userSpaceOnUse" color-interpolation-filters="sRGB">
<feFlood flood-opacity="0" result="BackgroundImageFix"/>
<feBlend mode="normal" in="SourceGraphic" in2="BackgroundImageFix" result="shape"/>
<feGaussianBlur stdDeviation="1" result="effect1_foregroundBlur_4_40374"/>
</filter>
<filter id="filter13_f_4_40374" x="40" y="26" width="14" height="14" filterUnits="userSpaceOnUse" color-interpolation-filters="sRGB">
<feFlood flood-opacity="0" result="BackgroundImageFix"/>
<feBlend mode="normal" in="SourceGraphic" in2="BackgroundImageFix" result="shape"/>
<feGaussianBlur stdDeviation="1" result="effect1_foregroundBlur_4_40374"/>
</filter>
<filter id="filter14_i_4_40374" x="24" y="13" width="25" height="27" filterUnits="userSpaceOnUse" color-interpolation-filters="sRGB">
<feFlood flood-opacity="0" result="BackgroundImageFix"/>
<feBlend mode="normal" in="SourceGraphic" in2="BackgroundImageFix" result="shape"/>
<feColorMatrix in="SourceAlpha" type="matrix" values="0 0 0 0 0 0 0 0 0 0 0 0 0 0 0 0 0 0 127 0" result="hardAlpha"/>
<feOffset dy="2"/>
<feGaussianBlur stdDeviation="1"/>
<feComposite in2="hardAlpha" operator="arithmetic" k2="-1" k3="1"/>
<feColorMatrix type="matrix" values="0 0 0 0 0.796078 0 0 0 0 0.835294 0 0 0 0 0.882353 0 0 0 1 0"/>
<feBlend mode="normal" in2="shape" result="effect1_innerShadow_4_40374"/>
</filter>
<filter id="filter15_f_4_40374" x="27" y="13" width="18" height="14" filterUnits="userSpaceOnUse" color-interpolation-filters="sRGB">
<feFlood flood-opacity="0" result="BackgroundImageFix"/>
<feBlend mode="normal" in="SourceGraphic" in2="BackgroundImageFix" result="shape"/>
<feGaussianBlur stdDeviation="1" result="effect1_foregroundBlur_4_40374"/>
</filter>
<filter id="filter16_i_4_40374" x="23" y="27" width="18" height="15" filterUnits="userSpaceOnUse" color-interpolation-filters="sRGB">
<feFlood flood-opacity="0" result="BackgroundImageFix"/>
<feBlend mode="normal" in="SourceGraphic" in2="BackgroundImageFix" result="shape"/>
<feColorMatrix in="SourceAlpha" type="matrix" values="0 0 0 0 0 0 0 0 0 0 0 0 0 0 0 0 0 0 127 0" result="hardAlpha"/>
<feOffset dy="2"/>
<feGaussianBlur stdDeviation="1"/>
<feComposite in2="hardAlpha" operator="arithmetic" k2="-1" k3="1"/>
<feColorMatrix type="matrix" values="0 0 0 0 0.796078 0 0 0 0 0.835294 0 0 0 0 0.882353 0 0 0 0.6 0"/>
<feBlend mode="normal" in2="shape" result="effect1_innerShadow_4_40374"/>
</filter>
<filter id="filter17_f_4_40374" x="23" y="27" width="18" height="13" filterUnits="userSpaceOnUse" color-interpolation-filters="sRGB">
<feFlood flood-opacity="0" result="BackgroundImageFix"/>
<feBlend mode="normal" in="SourceGraphic" in2="BackgroundImageFix" result="shape"/>
<feGaussianBlur stdDeviation="1" result="effect1_foregroundBlur_4_40374"/>
</filter>
<filter id="filter18_dii_4_40374" x="26.3867" y="40" width="11.4786" height="17.5" filterUnits="userSpaceOnUse" color-interpolation-filters="sRGB">
<feFlood flood-opacity="0" result="BackgroundImageFix"/>
<feColorMatrix in="SourceAlpha" type="matrix" values="0 0 0 0 0 0 0 0 0 0 0 0 0 0 0 0 0 0 127 0" result="hardAlpha"/>
<feOffset/>
<feGaussianBlur stdDeviation="1"/>
<feComposite in2="hardAlpha" operator="out"/>
<feColorMatrix type="matrix" values="0 0 0 0 0.988235 0 0 0 0 0.827451 0 0 0 0 0.301961 0 0 0 1 0"/>
<feBlend mode="normal" in2="BackgroundImageFix" result="effect1_dropShadow_4_40374"/>
<feBlend mode="normal" in="SourceGraphic" in2="effect1_dropShadow_4_40374" result="shape"/>
<feColorMatrix in="SourceAlpha" type="matrix" values="0 0 0 0 0 0 0 0 0 0 0 0 0 0 0 0 0 0 127 0" result="hardAlpha"/>
<feOffset dy="4"/>
<feGaussianBlur stdDeviation="1"/>
<feComposite in2="hardAlpha" operator="arithmetic" k2="-1" k3="1"/>
<feColorMatrix type="matrix" values="0 0 0 0 1 0 0 0 0 0.9575 0 0 0 0 0.7875 0 0 0 1 0"/>
<feBlend mode="normal" in2="shape" result="effect2_innerShadow_4_40374"/>
<feColorMatrix in="SourceAlpha" type="matrix" values="0 0 0 0 0 0 0 0 0 0 0 0 0 0 0 0 0 0 127 0" result="hardAlpha"/>
<feOffset/>
<feGaussianBlur stdDeviation="0.5"/>
<feComposite in2="hardAlpha" operator="arithmetic" k2="-1" k3="1"/>
<feColorMatrix type="matrix" values="0 0 0 0 0.960784 0 0 0 0 0.619608 0 0 0 0 0.0431373 0 0 0 1 0"/>
<feBlend mode="normal" in2="effect2_innerShadow_4_40374" result="effect3_innerShadow_4_40374"/>
</filter>
<filter id="filter19_f_4_40374" x="16" y="38" width="32" height="7" filterUnits="userSpaceOnUse" color-interpolation-filters="sRGB">
<feFlood flood-opacity="0" result="BackgroundImageFix"/>
<feBlend mode="normal" in="SourceGraphic" in2="BackgroundImageFix" result="shape"/>
<feGaussianBlur stdDeviation="1" result="effect1_foregroundBlur_4_40374"/>
</filter>
<radialGradient id="paint0_radial_4_40374" cx="0" cy="0" r="1" gradientUnits="userSpaceOnUse" gradientTransform="translate(18 51.5) rotate(-68.1986) scale(5.38516)">
<stop stop-color="#74D5FF"/>
<stop offset="0.37551" stop-color="#74D5FF" stop-opacity="0"/>
</radialGradient>
<radialGradient id="paint1_radial_4_40374" cx="0" cy="0" r="1" gradientUnits="userSpaceOnUse" gradientTransform="translate(24.5 51.5) rotate(-68.1986) scale(5.38516)">
<stop stop-color="#74D5FF"/>
<stop offset="0.37551" stop-color="#74D5FF" stop-opacity="0"/>
</radialGradient>
<radialGradient id="paint2_radial_4_40374" cx="0" cy="0" r="1" gradientUnits="userSpaceOnUse" gradientTransform="translate(31 51.5) rotate(-68.1986) scale(5.38516)">
<stop stop-color="#74D5FF"/>
<stop offset="0.37551" stop-color="#74D5FF" stop-opacity="0"/>
</radialGradient>
<radialGradient id="paint3_radial_4_40374" cx="0" cy="0" r="1" gradientUnits="userSpaceOnUse" gradientTransform="translate(37.5 51.5) rotate(-68.1986) scale(5.38516)">
<stop stop-color="#74D5FF"/>
<stop offset="0.37551" stop-color="#74D5FF" stop-opacity="0"/>
</radialGradient>
<radialGradient id="paint4_radial_4_40374" cx="0" cy="0" r="1" gradientUnits="userSpaceOnUse" gradientTransform="translate(44 51.5) rotate(-68.1986) scale(5.38516)">
<stop stop-color="#74D5FF"/>
<stop offset="0.37551" stop-color="#74D5FF" stop-opacity="0"/>
</radialGradient>
<radialGradient id="paint5_radial_4_40374" cx="0" cy="0" r="1" gradientUnits="userSpaceOnUse" gradientTransform="translate(50.5 51.5) rotate(-68.1986) scale(5.38516)">
<stop stop-color="#74D5FF"/>
<stop offset="0.37551" stop-color="#74D5FF" stop-opacity="0"/>
</radialGradient>
<linearGradient id="paint6_linear_4_40374" x1="31" y1="42" x2="31" y2="53" gradientUnits="userSpaceOnUse">
<stop stop-color="#94A3B8"/>
<stop offset="1" stop-color="#94A3B8" stop-opacity="0"/>
</linearGradient>
<linearGradient id="paint7_linear_4_40374" x1="16" y1="31" x2="16" y2="41" gradientUnits="userSpaceOnUse">
<stop stop-color="white"/>
<stop offset="1" stop-color="#F3F3F3" stop-opacity="0.2"/>
</linearGradient>
<linearGradient id="paint8_linear_4_40374" x1="23" y1="23" x2="23" y2="33" gradientUnits="userSpaceOnUse">
<stop stop-color="white"/>
<stop offset="1" stop-color="#F3F3F3" stop-opacity="0.2"/>
</linearGradient>
<linearGradient id="paint9_linear_4_40374" x1="47" y1="28" x2="47" y2="38" gradientUnits="userSpaceOnUse">
<stop stop-color="white"/>
<stop offset="1" stop-color="#F3F3F3" stop-opacity="0.2"/>
</linearGradient>
<linearGradient id="paint10_linear_4_40374" x1="36" y1="15" x2="36" y2="25" gradientUnits="userSpaceOnUse">
<stop stop-color="white"/>
<stop offset="1" stop-color="#F3F3F3" stop-opacity="0.2"/>
</linearGradient>
<linearGradient id="paint11_linear_4_40374" x1="32" y1="27" x2="32" y2="40" gradientUnits="userSpaceOnUse">
<stop stop-color="#F1F5F9"/>
<stop offset="0.650321" stop-color="#F1F5F9" stop-opacity="0"/>
</linearGradient>
<linearGradient id="paint12_linear_4_40374" x1="32" y1="29" x2="32" y2="38" gradientUnits="userSpaceOnUse">
<stop stop-color="white"/>
<stop offset="1" stop-color="#F3F3F3" stop-opacity="0.2"/>
</linearGradient>
<radialGradient id="paint13_radial_4_40374" cx="0" cy="0" r="1" gradientUnits="userSpaceOnUse" gradientTransform="translate(32 43.5) rotate(-90) scale(6 13.44)">
<stop offset="0.28125" stop-color="#FEF08A"/>
<stop offset="1" stop-color="#FEF08A" stop-opacity="0"/>
</radialGradient>
</defs>
</svg>
